<svg width="276" height="60" viewBox="0 0 276 60" fill="none" xmlns="http://www.w3.org/2000/svg">
<path d="M13.7121 55.9662L13.7121 55.9663L13.7169 55.9684C17.6371 57.7083 22.227 58.2687 27.4663 57.6787C32.2372 57.1415 36.0802 56.5531 38.9889 55.9118L38.9889 55.9118L38.9973 55.9098C41.9449 55.2062 44.4049 53.9699 46.3582 52.1884C48.3859 50.3391 49.1773 47.7447 48.8124 44.5034C48.623 42.8212 48.109 41.3826 47.2513 40.2093C46.3927 39.0349 45.209 38.1528 43.7223 37.5555C40.8504 36.3755 37.403 36.0276 33.4029 36.478C29.879 36.8748 26.6577 37.6807 23.7426 38.8998C24.117 33.6567 24.3667 29.1748 24.4914 25.4552C24.6229 21.5301 24.4976 17.8634 24.1139 14.456C23.7453 11.1824 22.5061 8.50739 20.3772 6.46688C18.274 4.39537 15.5912 3.55476 12.3887 3.91536C9.82808 4.20368 7.71637 5.03702 6.08791 6.44368C4.45867 7.85103 3.35077 9.7998 2.7427 12.2533L2.74269 12.2533L2.74195 12.2563C1.5913 17.0276 1.46061 23.2538 2.32294 30.9123C2.76179 34.8097 3.20033 38.0129 3.63896 40.5189C4.07879 43.0318 4.63265 45.1566 5.30522 46.8861L5.30528 46.8862C6.95508 51.1243 9.75999 54.1619 13.7121 55.9662Z" fill="#00FEFF" stroke="black"/>
<path d="M239.91 41.7987C238.262 42.6144 237.301 44.146 236.971 46.2709C236.633 48.4552 237.134 50.2615 238.547 51.5974C239.883 52.8619 241.579 53.7756 243.614 54.3502L243.614 54.3503L243.625 54.3533C245.625 54.8663 248.2 55.3661 251.343 55.8535C254.536 56.3486 257.165 56.6558 259.227 56.7726L259.227 56.7727L259.239 56.7731C261.351 56.8418 263.242 56.4849 264.898 55.6858C266.696 54.8507 267.75 53.286 268.089 51.0961C268.428 48.9162 267.925 47.1303 266.502 45.8418C265.281 44.6519 263.517 43.7291 261.249 43.048C262.03 39.787 262.772 35.8841 263.477 31.3415C264.2 26.675 264.662 22.9807 264.859 20.2647C267.616 20.3606 269.9 20.0143 271.68 19.1897C273.693 18.2885 274.874 16.5656 275.252 14.1281C275.622 11.7412 275.04 9.77277 273.448 8.31209C271.979 6.92723 270.119 5.93846 267.887 5.33406C265.696 4.74052 262.853 4.1741 259.366 3.6333C255.878 3.09249 252.997 2.77146 250.729 2.67345C248.418 2.57359 246.345 2.95323 244.525 3.82916C242.612 4.74915 241.49 6.45372 241.121 8.83559C240.744 11.2681 241.319 13.2639 242.916 14.7275C244.362 16.0532 246.413 17.0728 249.03 17.8106C248.413 20.6284 247.755 24.2912 247.056 28.7953C246.278 33.8137 245.779 37.7602 245.561 40.6285C243.315 40.6564 241.423 41.0371 239.91 41.7987ZM239.91 41.7987C239.91 41.7984 239.911 41.7981 239.912 41.7977L240.133 42.2459M239.91 41.7987C239.909 41.7989 239.909 41.7991 239.909 41.7993L240.133 42.2459M240.133 42.2459C238.666 42.9716 237.777 44.3388 237.466 46.3475C237.147 48.4051 237.621 50.034 238.89 51.2342C240.159 52.4343 241.779 53.3126 243.749 53.869L240.133 42.2459Z" fill="#B1F749" stroke="black"/>
<path d="M196.381 54.963L196.381 54.963L196.385 54.9683C198.481 57.7133 200.861 58.9814 203.506 58.5129C205.892 58.0902 207.637 57.0715 208.623 55.3929C209.623 53.7644 210.089 51.696 210.064 49.2234L210.064 49.2218C210.031 46.7226 209.668 43.5342 208.982 39.6647L208.981 39.6586L208.373 36.4572C208.747 37.0896 209.162 37.8012 209.62 38.5924L209.621 38.5945C211.863 42.4316 213.735 45.4367 215.235 47.6049L215.235 47.6049L215.24 47.6118C216.806 49.7958 218.562 51.5729 220.511 52.9351L220.517 52.9394L220.523 52.9436C222.562 54.2786 224.757 54.7484 227.084 54.3361C230.854 53.6684 233.653 51.5853 235.45 48.124C237.214 44.7244 238.188 40.8322 238.384 36.4581C238.627 32.1021 238.405 27.9747 237.714 24.0772C236.558 17.5484 234.789 11.9927 232.399 7.42044C231.187 5.08575 229.736 3.38018 228.027 2.35627C226.308 1.32627 224.368 1.01088 222.236 1.38852C220.466 1.70209 218.987 2.42206 217.822 3.56172C216.66 4.69883 215.84 6.22695 215.339 8.11552L215.339 8.11551L215.338 8.12133C214.397 11.8534 214.455 16.6058 215.473 22.3528C215.52 22.6178 215.579 22.9248 215.65 23.2737L215.417 22.8697L215.416 22.8682C212.95 18.6185 210.9 15.3171 209.267 12.9698C207.613 10.5542 205.811 8.65516 203.856 7.2882C201.908 5.88257 199.8 5.36294 197.559 5.75992C195.078 6.19939 193.037 7.22194 191.464 8.84256C189.894 10.4599 188.82 12.6422 188.217 15.3555L188.217 15.3555L188.216 15.358C187.063 20.6688 187.056 26.5024 188.181 32.8517C188.869 36.7353 189.902 40.7066 191.279 44.7655C192.661 48.8387 194.359 52.2417 196.381 54.963Z" fill="#5E4AF7" stroke="black"/>
<path d="M165.979 54.3396L165.983 54.3432C167.005 55.3171 167.996 56.0485 168.956 56.5199C169.917 56.9915 170.993 57.2855 172.178 57.4084C174.273 57.6257 176.211 57.1085 177.973 55.8699C179.806 54.6215 180.849 52.8966 181.075 50.7259C181.321 48.3503 180.791 45.8497 179.522 43.2346C181.557 41.5488 183.216 39.4114 184.501 36.8318C185.906 34.1176 186.791 30.9315 187.17 27.284C187.608 23.0604 186.989 19.2143 185.299 15.7609C183.664 12.3233 181.24 9.56626 178.034 7.49737C174.837 5.38148 171.175 4.11336 167.059 3.68644C161.942 3.15563 157.434 4.00788 153.562 6.26986C149.717 8.46957 146.694 11.5958 144.496 15.6363L144.496 15.6363L144.495 15.639C142.361 19.6186 141.05 23.9837 140.557 28.7292C139.838 35.6701 140.068 41.6602 141.265 46.6881C141.869 49.2249 142.857 51.229 144.257 52.6583C145.665 54.0948 147.459 54.9191 149.61 55.1422C152.122 55.4029 154.162 55.0054 155.643 53.8524C157.128 52.6961 157.959 50.8534 158.211 48.4291C158.285 47.7105 158.282 46.7449 158.207 45.5423C159.451 46.1262 160.71 46.575 161.987 46.8876C162.345 48.2556 162.862 49.5936 163.535 50.9013C164.259 52.3055 165.071 53.4561 165.979 54.3396ZM169.889 24.875L169.895 24.8825L169.901 24.8897C171.018 26.162 171.48 27.5739 171.316 29.1535C171.158 30.6803 170.418 31.972 169.049 33.0418C167.74 34.0623 166.276 34.483 164.63 34.3122C163.038 34.1471 161.688 33.4377 160.563 32.1584C159.445 30.8314 158.986 29.4164 159.145 27.8909C159.303 26.364 160.043 25.0722 161.413 24.0024C162.783 22.9318 164.251 22.4936 165.839 22.6582C167.479 22.8284 168.821 23.5604 169.889 24.875Z" fill="#00B44B" stroke="black"/>
<path d="M92.9234 51.4565L92.9233 51.4566L92.9281 51.4641C95.0365 54.8067 97.8614 56.5311 101.382 56.5311C104.184 56.5311 106.265 55.7668 107.441 54.0914C108.603 52.5043 109.17 50.5627 109.17 48.2971C109.17 47.5464 109.129 46.8577 109.044 46.2327C110.298 46.3062 111.463 46.343 112.537 46.343C114.369 46.343 116.452 46.3009 118.785 46.2168C118.698 46.846 118.656 47.5401 118.656 48.2971C118.656 50.5132 119.198 52.4273 120.308 54.0125L120.308 54.0126L120.314 54.0215C121.538 55.6903 123.637 56.4568 126.444 56.4568C130.009 56.4568 132.837 54.7624 134.899 51.4624C136.943 48.1917 138.12 43.6867 138.469 37.9909C138.52 37.1818 138.545 36.0044 138.545 34.4651C138.545 28.3634 137.544 22.9651 135.53 18.2811C133.565 13.5957 130.708 9.94709 126.954 7.35841C123.243 4.7159 118.901 3.40088 113.95 3.40088C108.998 3.40088 104.632 4.7165 100.872 7.3584C97.1662 9.94786 94.3105 13.6214 92.2963 18.3542C90.282 23.038 89.2814 28.4118 89.2814 34.4651C89.2814 36.0047 89.3062 37.1823 89.3568 37.9915C89.7067 43.5907 90.8837 48.0911 92.9234 51.4565ZM117.922 24.6288L117.922 24.6288L117.926 24.6353C118.844 25.9658 119.325 27.7411 119.325 30.0032C119.325 30.8162 119.297 31.4591 119.245 31.9405C116.886 31.8527 115.07 31.8085 113.802 31.8085C112.622 31.8085 110.805 31.853 108.353 31.9413C108.253 31.227 108.204 30.5315 108.204 29.8545C108.204 27.6446 108.684 25.893 109.602 24.5609C110.484 23.2822 111.828 22.6204 113.727 22.6204C115.674 22.6204 117.039 23.3052 117.922 24.6288Z" fill="#FF40FF" stroke="black"/>
<path d="M55.6086 52.8463L55.6106 52.8473C61.1253 55.5716 67.3982 56.4501 74.4087 55.507C79.9697 54.7589 83.9049 53.5834 86.1047 51.9174C88.3069 50.2497 89.3108 48.1873 88.9848 45.7633C88.8147 44.4992 88.3509 43.4533 87.5645 42.6659C86.7808 41.8814 85.7169 41.3935 84.4157 41.1706C83.4195 40.9818 82.1876 40.9957 80.7368 41.1909C79.8834 41.3057 78.8684 41.4932 77.6939 41.752L77.6939 41.7518L77.6805 41.7552C76.8011 41.9744 76.2721 42.0916 76.0596 42.1202C74.0342 42.3927 72.3145 42.2237 70.8801 41.6449C69.6906 41.1649 68.6746 40.3939 67.8316 39.3184C68.7422 39.2229 69.9891 39.0685 71.5685 38.856C76.8518 38.1453 80.231 37.5434 81.6304 37.0421C83.411 36.4399 84.7544 35.5746 85.5935 34.4107L85.5937 34.4108L85.6009 34.4003C86.423 33.1962 86.739 31.8578 86.5441 30.4092C86.3485 28.9547 85.6609 27.7498 84.5009 26.8149C83.3827 25.8671 81.9063 25.3513 80.1167 25.2271L80.1139 25.2269C78.5415 25.1266 75.2517 25.4209 70.301 26.0869C68.8184 26.2864 67.1889 26.5447 65.413 26.8618C65.7626 25.3681 66.4838 24.2039 67.5649 23.3402L67.565 23.3403L67.5742 23.3325C68.8238 22.2837 70.6724 21.5684 73.1746 21.2318C73.9053 21.1335 74.4493 21.0853 74.8177 21.0819L74.8395 21.0817L74.8612 21.0796L76.8611 20.8856L76.8703 20.8847L76.8795 20.8835C78.7903 20.6264 80.3542 20.1102 81.5386 19.3063C82.8961 18.4379 83.8795 17.3439 84.4599 16.0199L84.4599 16.0199L84.4635 16.0113C85.0271 14.6571 85.2105 13.244 85.0137 11.7812C84.593 8.65352 82.7957 6.22852 79.7084 4.51352C76.5775 2.72861 71.6292 2.34714 64.9768 3.24202C59.9336 3.92044 55.7916 5.69879 52.5812 8.59963L52.5812 8.59962L52.5787 8.60189C49.4322 11.4837 47.2595 15.1046 46.0584 19.4497C44.8603 23.7838 44.6076 28.4887 45.2895 33.5577C46.6318 43.5362 50.0198 50.0533 55.6086 52.8463Z" fill="#FF8615" stroke="black"/>
</svg>
