<svg width="24" height="24" viewBox="0 0 24 24" fill="none" xmlns="http://www.w3.org/2000/svg">
<path d="M21.8208 6.5H16.0632" stroke="white" stroke-width="1.5" stroke-miterlimit="10" stroke-linecap="round" stroke-linejoin="round"/>
<path d="M6.46728 6.5H2.62891" stroke="white" stroke-width="1.5" stroke-miterlimit="10" stroke-linecap="round" stroke-linejoin="round"/>
<path d="M10.3056 10C12.1605 10 13.6642 8.433 13.6642 6.5C13.6642 4.567 12.1605 3 10.3056 3C8.45071 3 6.94702 4.567 6.94702 6.5C6.94702 8.433 8.45071 10 10.3056 10Z" stroke="white" stroke-width="1.5" stroke-miterlimit="10" stroke-linecap="round" stroke-linejoin="round"/>
<path d="M21.8208 17.5H17.9824" stroke="white" stroke-width="1.5" stroke-miterlimit="10" stroke-linecap="round" stroke-linejoin="round"/>
<path d="M8.38646 17.5H2.62891" stroke="white" stroke-width="1.5" stroke-miterlimit="10" stroke-linecap="round" stroke-linejoin="round"/>
<path d="M14.144 21C15.9989 21 17.5025 19.433 17.5025 17.5C17.5025 15.567 15.9989 14 14.144 14C12.2891 14 10.7854 15.567 10.7854 17.5C10.7854 19.433 12.2891 21 14.144 21Z" stroke="white" stroke-width="1.5" stroke-miterlimit="10" stroke-linecap="round" stroke-linejoin="round"/>
</svg>
