<svg width="170" height="134" viewBox="0 0 170 134" fill="none" xmlns="http://www.w3.org/2000/svg">
<path d="M82.5685 133.619C103.596 133.619 120.642 116.573 120.642 95.5462C120.642 74.519 103.596 57.4732 82.5685 57.4732C61.5414 57.4732 44.4955 74.519 44.4955 95.5462C44.4955 116.573 61.5414 133.619 82.5685 133.619Z" fill="#00B44B"/>
<path d="M101.315 79.4764C101.795 79.8691 94.6831 89.4382 85.4339 100.84L79.8204 107.646L79.0496 108.577L78.2352 107.733C70.9638 100.273 66.0629 94.7464 66.4119 94.3974C66.7609 94.0483 72.3017 98.9783 79.7476 106.206L78.177 106.366L83.6742 99.4873C92.9234 88.0131 100.82 79.0838 101.315 79.4764Z" fill="white"/>
<path d="M136.654 80.189C135.519 76.1898 130.328 76.5824 130.328 76.5824L130.459 79.3601C133.469 78.8365 135.33 82.3559 135.33 82.3559L136.654 80.189Z" fill="#00B44B"/>
<path d="M26.3613 88.5947C25.2415 84.5955 20.0352 84.9736 20.0352 84.9736L20.1806 87.7658C23.1909 87.2423 25.0524 90.7616 25.0524 90.7616L26.3613 88.5947Z" fill="#E0E0E0"/>
<path d="M87.1062 33.2594C93.1415 35.0918 96.8935 28.1403 96.8935 28.1403L93.2287 26.0462C91.4254 30.3072 85.4047 29.8127 85.4047 29.8127L87.1062 33.2594Z" fill="#E0E0E0"/>
<path d="M53.643 40.749C50.8362 41.0544 50.5017 44.5737 50.5017 44.5737L52.3777 44.7919C52.3777 42.7268 54.9518 41.8833 54.9518 41.8833L53.643 40.749Z" fill="#00B44B"/>
<path d="M169.317 66.5188C169.724 63.7266 166.408 62.5195 166.408 62.5195L165.725 64.2792C167.732 64.7882 167.921 67.4932 167.921 67.4932L169.317 66.5188Z" fill="#E0E0E0"/>
<path d="M70.0188 3.99928C70.426 1.20706 67.1103 7.62939e-06 67.1103 7.62939e-06L66.4268 1.77423C68.4337 2.28323 68.6227 4.97364 68.6227 4.97364L70.0188 3.99928Z" fill="#00B44B"/>
<path d="M0.678283 49.0383C0.183828 53.4012 5.97186 54.4773 5.97186 54.4773L7.01894 51.5688C3.54322 51.2488 3.04874 47.2059 3.04874 47.2059L0.678283 49.0383Z" fill="#00B44B"/>
<path d="M129.76 33.1722C132.581 33.3321 133.483 29.9146 133.483 29.9146L131.665 29.391C131.331 31.427 128.655 31.8488 128.655 31.8488L129.76 33.1722Z" fill="#00B44B"/>
<path d="M145.161 44.661C144.405 44.873 143.616 44.9469 142.834 44.8791C142.052 44.9485 141.263 44.8746 140.507 44.661C142.043 44.3507 143.625 44.3507 145.161 44.661Z" fill="#E0E0E0"/>
<path d="M147.634 38.3348C147.925 39.892 147.925 41.4896 147.634 43.0467C147.323 41.4914 147.323 39.8901 147.634 38.3348Z" fill="#E0E0E0"/>
<path d="M150.251 44.501C151.007 44.2889 151.796 44.215 152.578 44.2828C153.36 44.2134 154.149 44.2873 154.905 44.501C153.369 44.8112 151.787 44.8112 150.251 44.501Z" fill="#E0E0E0"/>
<path d="M147.793 50.8416C147.483 49.2815 147.483 47.6754 147.793 46.1152C148.084 47.6773 148.084 49.2796 147.793 50.8416Z" fill="#E0E0E0"/>
<path d="M151.545 48.1949C151.458 48.2676 151.007 47.8895 150.542 47.3514C150.076 46.8133 149.8 46.2898 149.887 46.2171C149.974 46.1443 150.44 46.5079 150.891 47.0605C151.341 47.6132 151.647 48.0349 151.545 48.1949Z" fill="#E0E0E0"/>
<path d="M151.327 40.9234C151.414 41.0252 151.109 41.4761 150.629 41.956C150.149 42.4359 149.698 42.7558 149.611 42.6686C149.524 42.5813 149.829 42.1159 150.309 41.636C150.789 41.1561 151.24 40.9234 151.327 40.9234Z" fill="#E0E0E0"/>
<path d="M146.005 42.7704C145.918 42.8722 145.481 42.6395 145.031 42.2614C144.58 41.8833 144.289 41.5051 144.362 41.4179C144.434 41.3306 144.871 41.5488 145.321 41.9123C145.772 42.2759 146.078 42.6831 146.005 42.7704Z" fill="#E0E0E0"/>
<path d="M145.786 45.9407C145.888 46.0134 145.612 46.4642 145.175 46.9442C144.739 47.4241 144.317 47.7295 144.23 47.6422C144.143 47.5549 144.405 47.1041 144.841 46.6387C145.277 46.1734 145.699 45.8534 145.786 45.9407Z" fill="#E0E0E0"/>
<path d="M18.4645 31.6887C16.9288 31.999 15.3465 31.999 13.8108 31.6887C14.567 31.4767 15.3552 31.4028 16.1376 31.4706C16.9201 31.4012 17.7086 31.4751 18.4645 31.6887Z" fill="#ED1C24"/>
<path d="M20.9366 25.3627C21.2469 26.9229 21.2469 28.5289 20.9366 30.0891C20.6263 28.5289 20.6263 26.9229 20.9366 25.3627Z" fill="#ED1C24"/>
<path d="M23.5686 31.5433C25.1043 31.2331 26.6866 31.2331 28.2223 31.5433C26.6866 31.8536 25.1043 31.8536 23.5686 31.5433Z" fill="#ED1C24"/>
<path d="M21.0967 37.8695C20.7864 36.3142 20.7864 34.7129 21.0967 33.1576C21.407 34.7129 21.407 36.3142 21.0967 37.8695Z" fill="#ED1C24"/>
<path d="M24.8628 35.1063C24.761 35.1936 24.3102 34.8155 23.8594 34.2628C23.4085 33.7102 23.1031 33.2158 23.2049 33.1285C23.3067 33.0413 23.743 33.4339 24.2084 33.972C24.6738 34.5101 24.9501 35.1063 24.8628 35.1063Z" fill="#ED1C24"/>
<path d="M24.6452 27.9804C24.7325 28.0676 24.4125 28.533 23.9472 29.0129C23.4818 29.4928 23.0164 29.7982 22.9292 29.7109C22.8419 29.6237 23.1473 29.1729 23.6272 28.6929C24.1071 28.213 24.558 27.8349 24.6452 27.9804Z" fill="#ED1C24"/>
<path d="M19.3074 29.8127C19.2347 29.9 18.7984 29.6818 18.3476 29.3037C17.8967 28.9256 17.5913 28.5475 17.6786 28.4457C17.7659 28.3439 18.1876 28.5766 18.6384 28.9547C19.0893 29.3328 19.3947 29.7109 19.3074 29.8127Z" fill="#ED1C24"/>
<path d="M19.104 32.9685C19.1912 33.0558 18.9149 33.5066 18.4932 33.9865C18.0714 34.4665 17.6351 34.7719 17.5333 34.6846C17.4315 34.5974 17.7224 34.1465 18.1441 33.6812C18.5659 33.2158 19.0022 32.8813 19.104 32.9685Z" fill="#ED1C24"/>
</svg>
